<svg xmlns="http://www.w3.org/2000/svg" viewBox="0 0 451.733 43.36">
  <g id="图层_2" data-name="图层 2">
    <g id="图层_1-2" data-name="图层 1">
      <g>
        <g>
          <polygon points="34.632 0.694 0 0.694 0 8.35 12.935 8.35 12.935 43.354 21.216 43.354 21.216 8.35 32.279 8.35 34.632 0.694" style="fill: #0f0f0f"/>
          <path d="M42.238,11.665c-8.207,0-13.3,6.058-13.3,15.809,0,10.231,4.988,15.866,14.045,15.866a14.534,14.534,0,0,0,11.569-4.809l.779-.779-5.257-4.934-.731.732A7.536,7.536,0,0,1,43.092,36.2c-3.69,0-5.89-2.108-6.229-5.948h18.68V26.62C55.543,17.535,50.32,11.665,42.238,11.665ZM47.6,24.073H36.871a6.755,6.755,0,0,1,.6-2.446,5.247,5.247,0,0,1,9.478.012A7.059,7.059,0,0,1,47.6,24.073Z" style="fill: #0f0f0f"/>
          <path d="M77.764,33.661c-1.65,1.806-2.8,2.385-4.733,2.385a5.435,5.435,0,0,1-4.512-2.154c-1.05-1.337-1.479-3.19-1.479-6.4s.417-4.989,1.491-6.356A5.42,5.42,0,0,1,73.031,19c1.932,0,3.083.58,4.733,2.385l.742.812,5.527-5.369-.72-.765a12.935,12.935,0,0,0-10.282-4.377C66.3,11.685,59.1,15.838,59.1,27.494c0,11.7,7.2,15.866,13.931,15.866a12.96,12.96,0,0,0,10.282-4.434l.725-.771-5.537-5.3Z" style="fill: #0f0f0f"/>
          <polygon points="85.438 30.263 102.092 30.263 104.449 22.722 87.795 22.722 85.438 30.263" style="fill: #0012ef"/>
          <path d="M138.948,21.733l0-1.01c.016-5.637.032-11.465-4.412-15.91-2.7-2.7-6.582-4.126-11.228-4.126h-15.3v42.66h15.3c4.646,0,8.528-1.427,11.228-4.126,4.446-4.446,4.428-10.839,4.412-16.479ZM128.782,33.309a7.759,7.759,0,0,1-6.1,2.383H116.3V8.342h6.389a7.753,7.753,0,0,1,6.095,2.38c1.8,1.991,1.888,5.481,1.888,11.01C130.667,26.611,130.667,31.22,128.782,33.309Z" style="fill: #0f0f0f"/>
          <path d="M155.586,11.674a12.691,12.691,0,0,0-9.364,3.743c-3.263,3.4-3.713,7.808-3.713,12.066,0,4.288.45,8.724,3.717,12.126a13.654,13.654,0,0,0,18.781,0c3.263-3.4,3.713-7.834,3.713-12.122,0-4.258-.45-8.668-3.717-12.07A12.675,12.675,0,0,0,155.586,11.674Zm-3.457,8.652a4.7,4.7,0,0,1,3.457-1.338,4.835,4.835,0,0,1,3.514,1.338c1.394,1.394,1.68,3.869,1.68,7.157s-.286,5.763-1.68,7.157a4.848,4.848,0,0,1-3.514,1.395,4.717,4.717,0,0,1-3.457-1.395c-1.394-1.394-1.68-3.869-1.68-7.157S150.735,21.72,152.129,20.326Z" style="fill: #0f0f0f"/>
          <path d="M212.25,12.8c0-7.448-5.141-12.451-12.792-12.451-7.566,0-12.85,5.143-12.85,12.507v1.068h7.94V12.86c0-4.519,3.076-5.193,4.91-5.193,3.083,0,4.852,1.851,4.852,5.08a6.86,6.86,0,0,1-1.92,4.729L186.551,36.725v6.629h25.7V36.04H196.926l11.271-13.8C210.943,18.872,212.25,16.6,212.25,12.8Z" style="fill: #0f0f0f"/>
          <rect x="215.807" y="36.02" width="7.322" height="7.322" style="fill: #0012ef"/>
          <path d="M237.983.353c-7.5,0-12.735,5.213-12.735,12.678V30.67c0,7.465,5.237,12.679,12.735,12.679,7.532,0,12.793-5.214,12.793-12.679V13.031C250.776,5.566,245.515.353,237.983.353Zm-4.8,12.849c0-3.414,1.838-5.535,4.8-5.535,2.994,0,4.853,2.121,4.853,5.535V30.5c0,3.414-1.859,5.536-4.853,5.536-2.957,0-4.8-2.122-4.8-5.536Z" style="fill: #0f0f0f"/>
        </g>
        <g>
          <path d="M267.466,10.706a40.94,40.94,0,0,0,3.916-5.265A41.355,41.355,0,0,0,274.23,0l4.5,1.991-1.647,3.141H284.6v5.043H273.786q-.536.753-1.135,1.46t-1.224,1.46h12.461v5H279.17v3.5h5.875v5.352H279.17v5.221q1.024-.532,2.114-1.2t1.981-1.327l1.023,5.264a29.792,29.792,0,0,0,5.875-9.467A39.2,39.2,0,0,0,292.7,14.51h-7.521V9.2h7.655V.885h5.207V9.2h9.968V14.51h-9.657a36.254,36.254,0,0,0,3.071,10.839,36.386,36.386,0,0,0,3.849,6.768,37.246,37.246,0,0,0,5.1,5.751l-4.228,4.38A43.093,43.093,0,0,1,295.815,25.26q-.224.663-.446,1.283t-.445,1.238q-.49,1.241-1.045,2.434T292.655,32.6l2.8-2.034q.535.619,1,1.216t1.179,1.7q.756,1.107,1.313,1.969t.912,1.526l-4.45,3.407q-.357-.753-.868-1.637t-1.224-1.947q-.489-.751-.912-1.371t-.779-1.106q-1.158,1.858-2.6,3.782t-3.316,4l-4.672-4.2q.756-.621,1.424-1.217t1.29-1.261q-2.4,1.459-4.584,2.765t-4.583,2.632l-2.315-4.513a3.442,3.442,0,0,0,1.224-1.083,3.61,3.61,0,0,0,.334-1.792v-6.5h-4.584V21.589h4.584v-3.5h-2.537V13.271l-.311.355Z" style="fill: #0f0f0f"/>
          <path d="M340.307,8.051,340.53.8h5.34l-.178,7.255h9.924q0,3.406-.044,6.9t-.134,6.88q-.09,3.384-.245,6.547t-.333,5.906a28.332,28.332,0,0,1-.357,2.831,5.461,5.461,0,0,1-.778,2.035,3.907,3.907,0,0,1-1.513,1.327,7.587,7.587,0,0,1-2.559.664q-1.068.175-2.426.265t-3.048.044l-1.068-6.1q1.423.088,2.181.154a7.29,7.29,0,0,0,1.513-.022,9.818,9.818,0,0,0,1.468-.155,1.379,1.379,0,0,0,.823-.464,2.219,2.219,0,0,0,.4-1.062q.111-.707.2-1.991.31-4.777.49-9.223t.133-8.826h-4.806q-.179,5.574-.467,9.644a51.03,51.03,0,0,1-1.024,7.388,28.507,28.507,0,0,1-2.114,6.193,39.553,39.553,0,0,1-3.694,6.061l-4.85-3.495q.756-.974,1.4-1.835t1.18-1.7l-3.026,1.239q-.135-.531-.312-1.106-1.469.264-3.538.553t-4.183.553q-2.115.265-4,.465t-3,.243l-.979-5.751a2.5,2.5,0,0,0,1.045-.841,9.88,9.88,0,0,0,.735-1.15,52.176,52.176,0,0,0,2.269-5.663q.446-1.237.824-2.388t.734-2.3h-5.073V14.2h19.358v5.662h-8.322q-.357,1.151-.823,2.477t-1,2.743q-.846,2.169-1.513,3.849t-1.247,2.831q1.692-.132,3.472-.4t3.382-.575q-.757-1.946-1.38-3.429T328.2,24.73l5.118-1.947q.577,1.105,1.246,2.587t1.424,3.473q.489,1.241.868,2.3t.645,1.99a20.2,20.2,0,0,0,1.269-3.583,35.366,35.366,0,0,0,.756-4.136q.289-2.278.423-5.132t.223-6.525h-4.54V8.051ZM335.234,3.1V8.582h-16.11V3.1Z" style="fill: #0f0f0f"/>
          <path d="M370.676,12.3V8.8q-1.869.4-4.049.663l-1.558-5.176q1.6-.175,3.583-.487t3.96-.73q1.98-.418,3.827-.884t3.227-.952l1.958,5.088q-1.425.354-2.826.686t-2.826.685v4.6H381v5.309h-5.029v.31q.891.885,1.8,1.813t1.8,1.947q.978,1.061,1.669,1.9t1.135,1.46l-1.958,1.725L393.6,25.305V10.351L389.946,14.6a43.952,43.952,0,0,0-3.694-3.582q-1.2-1.107-2.18-1.9t-1.736-1.371l3.471-4.114q.8.575,1.8,1.393t2.247,1.836q1.2,1.018,2.158,1.858a17.551,17.551,0,0,1,1.58,1.548V.84h5.83V24.685l4.718-.53.4,5.794-5.118.576V41.5H393.6V31.144l-14.062,1.5-.357-4.777-.756.707q-.446-.619-1.068-1.416t-1.38-1.725V41.629h-5.3V27.781q-.979,2.037-1.936,3.806T366.8,34.86l-3.96-3.318a61.154,61.154,0,0,0,3.983-6.636,72.524,72.524,0,0,0,3.315-7.3H364.98V12.3Zm13.885,1.859a48.911,48.911,0,0,1,4.1,3.141q1.245,1.017,2.2,1.88a19.861,19.861,0,0,1,1.579,1.57l-3.782,4.689q-.667-.752-1.6-1.659t-2.136-2.013a36.422,36.422,0,0,0-3.96-3.317Z" style="fill: #0f0f0f"/>
          <path d="M410.346,22.119q1.157-.265,2.648-.708t3.315-1.062V13.537h-4.183V7.52h4.183V.973h5.652V7.52h3.382v6.017h-3.382v4.777l2.981-1.194,1.2,5.884q-.891.4-1.914.841t-2.269.929v9.82a15.037,15.037,0,0,1-.267,3.1,4.78,4.78,0,0,1-.913,2.035,4.27,4.27,0,0,1-1.691,1.239,9.525,9.525,0,0,1-2.6.619q-.891.133-1.758.177a13.513,13.513,0,0,1-1.536,0l-1.112-5.928q1.335.133,2.492.133a4.938,4.938,0,0,0,.913-.067.9.9,0,0,0,.512-.265,1.175,1.175,0,0,0,.244-.6,7,7,0,0,0,.067-1.106V26.853q-1.292.442-2.359.774t-1.958.553Zm12.5,14.687a56.024,56.024,0,0,0,10.5-5.131,33.784,33.784,0,0,1-3.316-5.021,44.756,44.756,0,0,1-2.6-5.818h-.757V15.351h8.189V11.325h-8.59V5.751h8.59V.663h5.7V5.751H450.4v5.574h-9.835v4.026H448.8V20.88a46.4,46.4,0,0,1-2.982,6.194,27.784,27.784,0,0,1-3.871,5.132,36.6,36.6,0,0,0,4.294,2.5q2.425,1.216,5.5,2.455l-2.8,5.619a53.114,53.114,0,0,1-6.231-3.12,35.652,35.652,0,0,1-5.118-3.649,46.727,46.727,0,0,1-5.1,3.252q-2.827,1.569-6.476,3.251Zm10.591-15.97a32.071,32.071,0,0,0,1.847,4.092,19.378,19.378,0,0,0,2.381,3.428,19.807,19.807,0,0,0,2.915-3.516,24.9,24.9,0,0,0,2.07-4Z" style="fill: #0f0f0f"/>
        </g>
      </g>
    </g>
  </g>
</svg>
