<svg id="tecdo-layer" data-name="TecDo layer" xmlns="http://www.w3.org/2000/svg" xmlns:xlink="http://www.w3.org/1999/xlink" viewBox="0 0 1014.652 274.082">
  <defs>
    <linearGradient id="tecdo-gradient-mask" data-name="tecdo-gradient-blue 2" y1="274.373" x2="1" y2="274.373" gradientTransform="translate(231.313 48539.056) rotate(180) scale(176.71)" gradientUnits="userSpaceOnUse">
      <stop offset="0"/>
      <stop offset="1" stop-color="#4d4d4d"/>
    </linearGradient>
    <clipPath id="clip-path" transform="translate(0 0)">
      <rect width="1014.65" height="274.373" style="fill: none"/>
    </clipPath>
    <clipPath id="clip-path-2" transform="translate(0 0)">
      <polygon points="54.602 109.213 231.313 91.013 231.313 17.893 54.602 0.003 54.602 109.213" style="fill: none"/>
    </clipPath>
    <mask id="mask" x="54.602" y="0.003" width="176.711" height="109.21" maskUnits="userSpaceOnUse">
      <g transform="translate(0 0)">
        <rect x="54.602" y="0.003" width="176.711" height="109.21" style="fill: url(#tecdo-gradient-mask)"/>
      </g>
    </mask>
    <linearGradient id="tecdo-gradient-blue" y1="274.373" x2="1" y2="274.373" gradientTransform="translate(231.313 48539.055) rotate(180) scale(176.71)" gradientUnits="userSpaceOnUse">
      <stop offset="0" stop-color="#0074ff"/>
      <stop offset="1" stop-color="#0074ff"/>
    </linearGradient>
    <clipPath id="clip-path-3" transform="translate(0 0)">
      <rect y="0.001" width="1014.652" height="274.372" style="fill: none"/>
    </clipPath>
    <linearGradient id="tecdo-gradient-mark" data-name="tecdo-gradient-blue 3" y1="274.373" x2="1" y2="274.373" gradientTransform="matrix(-169.682, 217.193, -217.193, -169.682, 59846.826, 46582.541)" gradientUnits="userSpaceOnUse">
      <stop offset="0" stop-color="#7e41ff"/>
      <stop offset="0.21" stop-color="#5651ff"/>
      <stop offset="0.44" stop-color="#3160ff"/>
      <stop offset="0.66" stop-color="#166bff"/>
      <stop offset="0.85" stop-color="#0571ff"/>
      <stop offset="1" stop-color="#0074ff"/>
    </linearGradient>
  </defs>
  <g style="clip-path: url(#clip-path)">
    <g style="clip-path: url(#clip-path-2)">
      <g style="mask: url(#mask)">
        <rect x="54.602" y="0.003" width="176.711" height="109.21" style="fill: url(#tecdo-gradient-blue)"/>
      </g>
    </g>
    <g style="clip-path: url(#clip-path-3)">
      <path d="M231.312,91.113a57.558,57.558,0,0,0-57.47,57.47v89a36.5,36.5,0,1,1-73,0v-89a130.481,130.481,0,0,1,130.47-130.47,36.5,36.5,0,0,1,0,73Z" transform="translate(0 0)" style="fill: url(#tecdo-gradient-mark)"/>
      <polygon points="437.922 94.832 399.132 94.832 399.132 216.552 377.762 216.552 377.762 94.832 338.972 94.832 338.972 75.632 437.932 75.632 437.932 94.832 437.922 94.832"/>
      <path d="M464.223,172.223q0,13.065,6.53,20.59t19,7.52q8.5,0,13.75-2.48a38.538,38.538,0,0,0,10.589-7.82l12.87,12.08a72.4,72.4,0,0,1-7.82,6.83,42.85,42.85,0,0,1-18.009,7.82,64.717,64.717,0,0,1-11.771.98,56.949,56.949,0,0,1-17.71-2.67,35.288,35.288,0,0,1-14.25-8.71,42.524,42.524,0,0,1-9.6-15.94q-3.555-9.885-3.56-24.14,0-24.735,11.581-38t30.969-13.26a44.508,44.508,0,0,1,18.01,3.47,36.467,36.467,0,0,1,13.36,9.89,44.413,44.413,0,0,1,8.31,15.43,65.385,65.385,0,0,1,2.87,19.89v8.51H464.223Zm45.13-14.06q-.406-4.545-.79-7.42a22.177,22.177,0,0,0-1.981-6.23,21.652,21.652,0,0,0-7.62-9.2,20.963,20.963,0,0,0-12.17-3.47,22.538,22.538,0,0,0-21.969,18.9c-.271,1.91-.461,4.39-.6,7.42Z" transform="translate(0 0)"/>
      <path d="M598.583,115.023a46.663,46.663,0,0,1,18.209,3.27,45.037,45.037,0,0,1,14.851,10.79l-13.861,13.47a34,34,0,0,0-9.01-7.33,22.176,22.176,0,0,0-10.189-2.18q-11.881,0-18.6,8.91a23.53,23.53,0,0,0-4.649,9.79,67.134,67.134,0,0,0-1.291,14.55,68.426,68.426,0,0,0,1.291,14.64,23.723,23.723,0,0,0,4.649,9.89q6.72,8.925,18.6,8.91a22.147,22.147,0,0,0,10.189-2.17,33.763,33.763,0,0,0,9.01-7.33l13.861,13.26a45.9,45.9,0,0,1-14.851,10.88,45.144,45.144,0,0,1-18.209,3.37,50.229,50.229,0,0,1-16.531-2.77,37.637,37.637,0,0,1-14.25-8.91,45.3,45.3,0,0,1-10.1-15.93q-3.855-9.795-3.861-23.85t3.861-23.85a44.212,44.212,0,0,1,10.1-15.84,38.172,38.172,0,0,1,14.25-8.8,50.155,50.155,0,0,1,16.531-2.78Z" transform="translate(0 0)"/>
      <rect x="658.512" y="152.232" width="57.79" height="18.8"/>
      <path d="M800.383,74.453q19.59,0,33.05,11.18t17.22,32.17h-21.77q-2.37-10.89-9.5-17.52t-19-6.63q-12.87,0-20.78,8.51a21.607,21.607,0,0,0-4.35,6.13,37.111,37.111,0,0,0-2.58,8.22,76.288,76.288,0,0,0-1.28,11.97q-.3,7.125-.3,17.62c0,7,.1,12.86.3,17.61a78.623,78.623,0,0,0,1.28,11.97,36.426,36.426,0,0,0,2.58,8.22,21.331,21.331,0,0,0,4.35,6.13q7.905,8.52,20.78,8.51,11.88,0,19-6.63t9.5-17.51h21.77q-3.765,20.97-17.32,32.16t-32.95,11.18a53.578,53.578,0,0,1-20.58-3.66,47.839,47.839,0,0,1-15.83-10.58,43.65,43.65,0,0,1-8.02-10.69,47.4,47.4,0,0,1-4.25-12.18,88.915,88.915,0,0,1-1.68-15.04q-.3-8.415-.29-19.49t.29-19.5a90.075,90.075,0,0,1,1.68-15.04,47.327,47.327,0,0,1,4.25-12.17,43.15,43.15,0,0,1,8.02-10.69,48.044,48.044,0,0,1,15.83-10.58,53.8,53.8,0,0,1,20.58-3.66Z" transform="translate(0 0)"/>
      <path d="M900.813,126.3a32.337,32.337,0,0,1,11.879-8.5,37.5,37.5,0,0,1,14.45-2.78,38.992,38.992,0,0,1,13.95,2.37,31.811,31.811,0,0,1,10.79,6.74,31.052,31.052,0,0,1,7.92,12.77,52.342,52.342,0,0,1,2.18,15.54v64.12h-20.19V155.4q0-11.67-5.84-17.02a20.47,20.47,0,0,0-14.35-5.35,21.281,21.281,0,0,0-14.64,5.45q-6.135,5.445-6.14,16.92v61.16h-20.18V75.643h20.18v50.67Z" transform="translate(0 0)"/>
      <path d="M1014.652,96.423h-21.37V75.053h21.37Zm-.6,120.13h-20.18V116.2h20.18Z" transform="translate(0 0)"/>
      <path d="M38.092,28.933l10.99-25.31a6.017,6.017,0,0,1,11.04,0l10.99,25.31a17.632,17.632,0,0,0,9.16,9.16l25.31,10.99a6.017,6.017,0,0,1,0,11.04l-25.31,10.99a17.629,17.629,0,0,0-9.16,9.16l-10.99,25.31a6.017,6.017,0,0,1-11.04,0l-10.99-25.31a17.629,17.629,0,0,0-9.16-9.16L3.622,60.123a6.017,6.017,0,0,1,0-11.04l25.31-10.99A17.629,17.629,0,0,0,38.092,28.933Z" transform="translate(0 0)" style="fill: #0074ff"/>
    </g>
  </g>
</svg>
